<?xml version="1.0" encoding="utf-8"?>
<!-- Generator: Adobe Illustrator 18.1.0, SVG Export Plug-In . SVG Version: 6.00 Build 0)  -->
<svg version="1.1" id="Layer_1" xmlns="http://www.w3.org/2000/svg" xmlns:xlink="http://www.w3.org/1999/xlink" x="0px" y="0px"
	 viewBox="0 0 38 42" style="enable-background:new 0 0 38 42;" xml:space="preserve">
<style type="text/css">
	.st0{fill:#F00508;}
	.st1{fill:#FFFFFF;}
</style>
<g>
	<polygon class="st0" points="16,32.5 11.1,34.3 11.3,29 6.1,27.5 9.5,23.3 6.1,19.1 11.3,17.7 11.1,12.3 16,14.2 19,9.7 22,14.2 
		26.9,12.3 26.7,17.7 31.9,19.1 28.5,23.3 31.9,27.5 26.7,29 26.9,34.3 22,32.5 19,40.4 	"/>
	<path class="st1" d="M19,10.6l2.8,4.2l4.7-1.7l-0.2,5l4.8,1.3l-3.1,3.9l3.1,3.9l-4.8,1.3l0.2,5l-4.7-1.7L19,39l-2.8-7.2l-4.7,1.7
		l0.2-5L7,27.2l3.1-3.9L7,19.4l4.8-1.3l-0.2-5l4.7,1.7L19,10.6 M19,8.8l-0.8,1.3l-2.3,3.5l-3.9-1.5l-1.4-0.5l0.1,1.5l0.2,4.2l-4,1.1
		l-1.4,0.4L6.2,20l2.6,3.3l-2.6,3.3l-0.9,1.2l1.4,0.4l4,1.1l-0.2,4.2L10.5,35l1.4-0.5l3.7-1.4l2.4,6.2l0.9,2.4l0.9-2.4l2.4-6.2
		l3.7,1.4l1.4,0.5l-0.1-1.5l-0.2-4.2l4-1.1l1.4-0.4l-0.9-1.2l-2.6-3.3l2.6-3.3l0.9-1.2l-1.4-0.4l-4-1.1l0.2-4.2l0.1-1.5l-1.4,0.5
		l-3.9,1.5l-2.3-3.5L19,8.8L19,8.8z"/>
</g>
</svg>
