<?xml version="1.0" encoding="utf-8"?>
<!-- Generator: Adobe Illustrator 18.1.0, SVG Export Plug-In . SVG Version: 6.00 Build 0)  -->
<svg version="1.1" id="Layer_1" xmlns="http://www.w3.org/2000/svg" xmlns:xlink="http://www.w3.org/1999/xlink" x="0px" y="0px"
	 viewBox="0 0 38 42" style="enable-background:new 0 0 38 42;" xml:space="preserve">
<style type="text/css">
	.st0{fill:#FFFFFF;}
	.st1{fill:#E5C420;}
	.st2{opacity:0.25;}
	.st3{fill:#4C535B;}
	.st4{clip-path:url(#SVGID_2_);}
	.st5{fill:none;stroke:#4C535B;stroke-width:3.5;stroke-miterlimit:10;}
	.st6{fill:url(#SVGID_3_);}
	.st7{fill:url(#SVGID_4_);}
</style>
<g>
	<path class="st0" d="M19,42c-2.4,0-19-9.3-19-23C0,8.5,8.5,0,19,0s19,8.5,19,19C38,32.7,21.4,42,19,42z"/>
</g>
<g>
	<path class="st1" d="M37,19c0,13.1-16,22-18,22S1,32,1,19C1,9.1,9.1,1,19,1S37,9.1,37,19z"/>
</g>
<g class="st2">
	<circle class="st3" cx="19" cy="20" r="15"/>
</g>
<g>
	<circle class="st0" cx="19" cy="19" r="15"/>
</g>
<g>
	<defs>
		<circle id="SVGID_1_" cx="19" cy="19" r="14"/>
	</defs>
	<clipPath id="SVGID_2_">
		<use xlink:href="#SVGID_1_"  style="overflow:visible;"/>
	</clipPath>
	<g class="st4">
		<path class="st5" d="M19,19c0,0-2.2-2.8-4-3c-2.6-0.3-5,3.4-1,9c3.2,4.5,10.8,10.5,15,13"/>
		<g>
			<linearGradient id="SVGID_3_" gradientUnits="userSpaceOnUse" x1="11.5" y1="26" x2="18.5" y2="26">
				<stop  offset="0" style="stop-color:#0883C2"/>
				<stop  offset="1" style="stop-color:#008DD0"/>
			</linearGradient>
			<path class="st6" d="M15,29.5c-1.9,0-3.5-1.6-3.5-3.5s1.6-3.5,3.5-3.5s3.5,1.6,3.5,3.5S16.9,29.5,15,29.5z"/>
			<g>
				<path class="st0" d="M15,23c1.7,0,3,1.3,3,3s-1.3,3-3,3s-3-1.3-3-3S13.3,23,15,23 M15,22c-2.2,0-4,1.8-4,4s1.8,4,4,4s4-1.8,4-4
					S17.2,22,15,22L15,22z"/>
			</g>
		</g>
	</g>
	<g class="st4">
		<path class="st5" d="M19,19c0,0,2.2,2.8,4,3c2.6,0.3,5-3.4,1-9C20.8,8.5,13.2,2.5,9,0"/>
		<g>
			<linearGradient id="SVGID_4_" gradientUnits="userSpaceOnUse" x1="20.4912" y1="14" x2="27.4912" y2="14">
				<stop  offset="0" style="stop-color:#0883C2"/>
				<stop  offset="1" style="stop-color:#008DD0"/>
			</linearGradient>
			<path class="st7" d="M24,17.5c-1.9,0-3.5-1.6-3.5-3.5s1.6-3.5,3.5-3.5s3.5,1.6,3.5,3.5S25.9,17.5,24,17.5z"/>
			<g>
				<path class="st0" d="M24,11c1.7,0,3,1.3,3,3s-1.3,3-3,3s-3-1.3-3-3S22.3,11,24,11 M24,10c-2.2,0-4,1.8-4,4s1.8,4,4,4s4-1.8,4-4
					S26.2,10,24,10L24,10z"/>
			</g>
		</g>
	</g>
</g>
</svg>
